<?xml version="1.0" encoding="utf-8" ?>
<svg xmlns="http://www.w3.org/2000/svg" width="512" height="512"
     viewBox="0 0 512 512">
    <path fill="#FEFEFE"
          d="M356.815 70.8952C378.251 70.0984 418.959 70.3623 435.148 85.9545C455.425 105.484 450.252 149.793 450.945 175.697C451.431 193.871 448.609 217.081 462.553 231.56C471.008 239.749 486.218 241.423 497.499 241.541C501.693 241.585 507.996 241.29 512 241.73L512 269.716C496.173 270.409 473.721 268.257 461.512 281.229C450.17 293.281 450.941 315.954 450.948 331.613L450.966 358.941C450.987 379.918 451.18 413.229 433.592 427.555C415.181 442.552 379.329 441.376 356.783 441.237C356.876 439.641 357.108 428.002 356.761 427.297L355.79 427.034L354.432 427.052C353.438 427.35 345.304 427.16 343.706 427.159L313.689 427.143L211.82 427.148C193.358 427.146 173.544 426.747 155.225 427.279L155.105 441.271C133.569 441.867 94.9005 441.811 77.4482 427.382C60.4732 413.349 60.5145 380.347 60.5154 359.756L60.524 332.462C60.5302 316.12 61.5094 294.643 50.0798 281.499C41.9315 272.128 26.3344 270.225 14.5715 269.841C9.83009 269.687 4.75722 270.1 0 269.805L0 241.565C15.081 241.562 37.6048 242.858 49.1491 231.433C61.4718 219.238 60.5238 195.743 60.5212 179.714L60.517 151.968C60.5183 130.732 60.2475 96.8971 79.5579 83.1096C94.8958 72.1585 123.112 70.8497 141.477 70.7557C145.089 70.7372 151.685 70.6412 155.187 70.9664C155.087 75.3615 155.177 80.0307 155.25 84.4442C158.26 84.9468 163.577 84.7862 166.793 84.7806L184.467 84.7537L250.612 84.752L323.362 84.7556L345.043 84.764C347.867 84.7643 354.175 84.9135 356.772 84.5888C356.809 80.6658 357.056 74.6571 356.815 70.8952Z"/>
    <path d="M356.815 70.8952C378.251 70.0984 418.959 70.3623 435.148 85.9545C455.425 105.484 450.252 149.793 450.945 175.697C451.431 193.871 448.609 217.081 462.553 231.56C471.008 239.749 486.218 241.423 497.499 241.541C501.693 241.585 507.996 241.29 512 241.73L512 269.716C496.173 270.409 473.721 268.257 461.512 281.229C450.17 293.281 450.941 315.954 450.948 331.613L450.966 358.941C450.987 379.918 451.18 413.229 433.592 427.555C415.181 442.552 379.329 441.376 356.783 441.237C356.876 439.641 357.108 428.002 356.761 427.297L355.79 427.034L356.471 426.928C357.053 426.006 356.824 415.168 356.852 413.072C367.613 413.401 381.364 413.21 391.928 411.336C397.313 410.38 404.674 407.426 407.87 402.757C416.054 390.801 414.792 367.723 414.791 353.741L414.784 327.069C414.776 302.96 414.367 273.433 439.121 261.302C443.49 259.16 449.388 256.803 454.139 255.819C451.468 255.381 448.833 254.496 446.28 253.607C436.339 250.142 427.52 244.441 422.364 235.004C405.456 204.053 424.624 126.012 406.127 107.26C396.09 97.0852 370.127 98.7836 356.795 98.7752C356.767 94.194 356.783 89.6126 356.84 85.0316C332.52 84.7444 307.771 84.9692 283.423 84.9688L155.233 84.9885L155.229 98.7622C99.8021 98.8305 97.2163 102.659 97.2268 157.413L97.2329 184.112C97.2358 205.208 97.8834 233.616 78.4491 247.207C72.973 251.036 64.3011 254.803 57.5907 255.805C66.4767 257.444 76.873 262.435 83.2932 268.716C99.0494 284.128 97.2312 313.618 97.2292 334.012C97.228 346.31 97.1095 358.619 97.2552 370.915C97.3734 380.897 98.3421 397.784 105.826 404.959C115.447 414.183 142.386 413.409 155.214 413.082L155.232 426.991C171.201 427.168 187.473 427.003 203.481 427.003L298.987 427.007L335.146 427.014C341.448 427.015 348.174 426.869 354.432 427.052C353.438 427.35 345.304 427.16 343.706 427.159L313.689 427.143L211.82 427.148C193.358 427.146 173.544 426.747 155.225 427.279L155.105 441.271C133.569 441.867 94.9005 441.811 77.4482 427.382C60.4732 413.349 60.5145 380.347 60.5154 359.756L60.524 332.462C60.5302 316.12 61.5094 294.643 50.0798 281.499C41.9315 272.128 26.3344 270.225 14.5715 269.841C9.83009 269.687 4.75722 270.1 0 269.805L0 241.565C15.081 241.562 37.6048 242.858 49.1491 231.433C61.4718 219.238 60.5238 195.743 60.5212 179.714L60.517 151.968C60.5183 130.732 60.2475 96.8971 79.5579 83.1096C94.8958 72.1585 123.112 70.8497 141.477 70.7557C145.089 70.7372 151.685 70.6412 155.187 70.9664C155.087 75.3615 155.177 80.0307 155.25 84.4442C158.26 84.9468 163.577 84.7862 166.793 84.7806L184.467 84.7537L250.612 84.752L323.362 84.7556L345.043 84.764C347.867 84.7643 354.175 84.9135 356.772 84.5888C356.809 80.6658 357.056 74.6571 356.815 70.8952Z"/>
    <path d="M226.419 170.715C225.685 162.782 224.666 155.177 225.223 147.159C226.042 135.37 228.598 124.18 236.129 114.764C244.986 103.69 260.269 101.476 271.182 111.009C281.527 120.046 284.732 133.992 285.743 147.186C285.95 149.661 286.014 152.145 285.934 154.627C285.848 156.851 284.357 169.424 284.867 170.5C285.219 170.554 285.977 170.586 286.198 170.702C290.584 170.751 294.97 170.75 299.355 170.699C299.453 170.674 300.489 170.409 300.489 170.409C303.238 167.529 305.638 164.31 308.454 161.494C320.626 149.319 342.016 136.075 359.055 146.253C374.943 156.251 371.775 176.297 363.072 190.029C353.131 205.716 338.518 216.807 322.613 225.841C320.494 227.045 314.496 230.667 312.461 230.885L312.436 236.424L312.423 278.741L312.46 284.054C312.488 307.603 312.491 318.524 293.619 334.844C289.823 337.591 287.658 338.758 283.486 340.868C284.589 343.673 284.849 348.48 285.233 351.501C287.656 370.556 284.142 400.545 263.532 408.553C257.904 410.703 251.65 410.52 246.157 408.044C229.133 400.359 224.619 377.092 225.073 360.241C225.18 356.266 225.81 352.32 225.797 348.286C219.915 347.185 216.328 346.193 210.7 344.298C210.336 344.551 210.509 344.39 210.243 344.731C205.039 351.375 199.071 357.248 192.284 362.252C183.879 368.358 171.985 373.66 161.437 372.122C151.202 370.562 143.332 363.863 141.365 353.514C140.501 348.975 140.387 346.945 141.21 342.319C144.601 323.275 159.495 309.131 174.262 297.975C174.309 297.697 174.355 297.419 174.402 297.142C173.732 293.361 173.339 289.537 173.226 285.7C172.726 285.606 164.167 286.843 162.804 287.078C140.111 290.989 98.4622 283.401 103.545 252.384C104.978 245.592 111.074 238.291 116.925 235.101C147.632 218.367 185.716 231.138 215.862 243.046C220.51 244.882 227.917 246.734 232.842 247.95C229.643 245.998 226.128 244.403 222.846 242.573C215.304 238.369 207.095 235.573 199.379 231.721C180.098 222.097 160.739 209.579 148.675 191.268C143.277 183.075 139.028 171.391 141.349 161.528C144.604 146.348 158.803 140.055 173.181 143.701C189.834 147.925 202.701 160.277 212.855 173.627C214.569 175.881 216.545 178.358 217.98 180.756L218.161 181.063L218.532 181.029L218.625 170.736L226.419 170.715Z"/>
    <path fill="#CFB3FE"
          d="M232.842 247.95C229.643 245.998 226.128 244.403 222.846 242.573C215.304 238.369 207.095 235.573 199.379 231.721C180.098 222.097 160.739 209.579 148.675 191.268C143.277 183.075 139.028 171.391 141.349 161.528C144.604 146.348 158.803 140.055 173.181 143.701C189.834 147.925 202.701 160.277 212.855 173.627C214.569 175.881 216.545 178.358 217.98 180.756L218.161 181.063L218.532 181.029C218.77 187.753 218.639 196.213 218.553 203.021L230.664 203.017L235.236 203.027L254.463 203.039L254.466 271.318L254.474 291.07C254.481 297.08 255.406 308.361 250.96 312.951C247.306 316.723 239.142 316.694 234.222 315.708C232.441 315.28 231.172 314.799 229.626 313.83C229.254 313.524 228.899 313.199 228.563 312.854C222.398 306.619 224.261 289.489 224.239 280.737L172.971 280.733L173.226 285.7C172.726 285.606 164.167 286.843 162.804 287.078C140.111 290.989 98.4622 283.401 103.545 252.384C104.978 245.592 111.074 238.291 116.925 235.101C147.632 218.367 185.716 231.138 215.862 243.046C220.51 244.882 227.917 246.734 232.842 247.95Z"/>
    <path fill="#FEFEFE"
          d="M249.947 271.181C249.228 274.32 248.137 277.385 247.235 280.424C245.954 284.735 244.753 288.657 243.131 292.767C241.346 297.29 234.81 311.469 234.222 315.708C232.441 315.28 231.172 314.799 229.626 313.83C231.924 308.934 234.125 303.994 236.23 299.013C237.879 295.029 239.539 289.876 241.675 286.233C244.559 281.313 247.115 276.081 249.947 271.181Z"/>
    <path fill="#FEFEFE"
          d="M230.664 203.017L235.236 203.027C238.66 211.213 242.05 219.782 245.454 228.003C247.296 232.452 248.774 238.996 250.12 243.781C249.319 242.5 248.703 241.191 247.977 239.892C242.814 230.65 238.072 221.558 234.324 211.636C233.392 209.168 231.237 205.446 230.664 203.017Z"/>
    <path fill="#FEFEFE"
          d="M238.652 263.555L238.919 263.612L238.77 263.934C228.816 269.192 216.221 276.773 205.203 280.325C203.642 280.829 196.921 280.499 194.979 280.462L194.647 280.35C197.823 278.417 203.911 276.813 207.551 275.207C217.841 270.666 227.901 266.89 238.652 263.555Z"/>
    <path fill="#CFB3FE"
          d="M226.419 170.715C225.685 162.782 224.666 155.177 225.223 147.159C226.042 135.37 228.598 124.18 236.129 114.764C244.986 103.69 260.269 101.476 271.182 111.009C281.527 120.046 284.732 133.992 285.743 147.186C285.95 149.661 286.014 152.145 285.934 154.627C285.848 156.851 284.357 169.424 284.867 170.5C285.219 170.554 285.977 170.586 286.198 170.702C281.4 171.041 272.119 170.713 266.87 170.713L226.419 170.715Z"/>
    <path fill="#CFB3FE"
          d="M225.797 348.286C245.473 350.531 265.412 350.031 283.486 340.868C284.589 343.673 284.849 348.48 285.233 351.501C287.656 370.556 284.142 400.545 263.532 408.553C257.904 410.703 251.65 410.52 246.157 408.044C229.133 400.359 224.619 377.092 225.073 360.241C225.18 356.266 225.81 352.32 225.797 348.286Z"/>
    <path fill="#CFB3FE"
          d="M174.402 297.142C177.247 313.37 184.301 327.574 198.006 337.416C200.928 339.514 207.349 343.12 210.7 344.298C210.336 344.551 210.509 344.39 210.243 344.731C205.039 351.375 199.071 357.248 192.284 362.252C183.879 368.358 171.985 373.66 161.437 372.122C151.202 370.562 143.332 363.863 141.365 353.514C140.501 348.975 140.387 346.945 141.21 342.319C144.601 323.275 159.495 309.131 174.262 297.975C174.309 297.697 174.355 297.419 174.402 297.142Z"/>
    <path fill="#CFB3FE"
          d="M299.355 170.699C299.453 170.674 300.489 170.409 300.489 170.409C303.238 167.529 305.638 164.31 308.454 161.494C320.626 149.319 342.016 136.075 359.055 146.253C374.943 156.251 371.775 176.297 363.072 190.029C353.131 205.716 338.518 216.807 322.613 225.841C320.494 227.045 314.496 230.667 312.461 230.885C312.253 221.935 312.44 212.027 312.467 203.02L342.673 203.015C342.449 192.565 342.645 181.24 342.653 170.727L299.355 170.699Z"/>
    <path fill="#CFB3FE"
          d="M312.436 236.424C335.498 228.02 366.97 222.391 389.707 232.829C416.902 245.313 412.433 275.255 385.115 284.102C365.413 290.483 347.144 288.023 327.368 283.119C322.208 281.8 317.45 280.113 312.423 278.741L312.436 236.424Z"/>
    <path fill="#CFB3FE"
          d="M312.46 284.054C315.422 284.961 320.017 287.719 322.785 289.292C339.143 298.584 355.283 311.075 364.622 327.73C367.603 333.048 370.639 341.936 370.414 348.002C369.613 367.811 352.244 376.603 334.396 370.404C319.285 365.155 308.729 354.904 298.963 342.621C297.646 340.965 294.266 336.566 293.619 334.844C312.491 318.524 312.488 307.603 312.46 284.054Z"/>
</svg>
