<svg xmlns="http://www.w3.org/2000/svg" xml:space="preserve" viewBox="0 0 512 512">
  <path fill="#fefefe" d="M357.05089 84.57671c159.09781-13.281406 6.802 141.38723 130.42864 173.50027C370.98281 290.73605 500.52639 438.41109 356.761 427.297c-201.72283-.06845.65552-.70004-201.536-.018-158.2517961.53382-3.90458-155.28123-147.4749837-172.97403C171.54725 240.45576-12.004588 72.263589 155.187 85.883812c236.88296-1.435966-31.48173.671018 201.86389-1.307102"/>
  <path d="M375.82031 70.71875c-7.08376-.156319-13.64686-.02342-19.00586.175781-.006 27.877637.0347.007-.0196 27.880897 13.332.0084 39.29503-1.690425 49.33203 8.484382 18.497 18.752-.67167 96.79314 16.23633 127.74414 5.156 9.437 13.97502 15.13851 23.91602 18.60351 2.553.889 5.18837 1.77294 7.85937 2.21094-4.751.984-10.64858 3.34237-15.01758 5.48437-24.754 12.131-24.34589 41.65663-24.33789 65.76563l.008 26.67187c.001 13.982 1.26212 37.06158-6.92188 49.01758-3.196 4.669-10.55641 7.62213-15.94141 8.57813-10.564 1.874-24.31517 2.06533-35.07617 1.73633-.1192 28.05481.03.0309-.0684 28.16406 22.546.139 58.3976 1.31536 76.8086-13.68164 17.588-14.326 17.396-47.63628 17.375-68.61328l-.0195-27.32813c-.007-15.659-.77755-38.33276 10.56445-50.38476C473.72072 268.25652 496.173 270.4098 512 269.7168v-27.98633c-4.004-.44-10.30795-.14545-14.50195-.18945-11.281-.118-26.49032-1.79147-34.94532-9.98047-13.944-14.479-11.12142-37.68928-11.60742-55.86328-.693-25.904 4.48013-70.21269-15.79687-89.742192-12.14175-11.69415-38.07683-14.767372-59.32813-15.236328m-234.34375.03711c-18.365.094-46.580066 1.402416-61.917966 12.353516-19.3104 13.7875-19.039716 47.623374-19.041016 68.859374l.0039 27.74609c.0026 16.029.949653 39.52375-11.373046 51.71875C37.604138 242.85859 15.081 241.56145 0 241.56445v28.24024c4.75722.295 9.8308556-.11689 14.572266.0371 11.7629.384 27.359512 2.28525 35.507812 11.65625 11.4296 13.144 10.449559 34.62284 10.44336 50.96484l-.0078 27.29297c-.0009 20.591-.04336 53.59395 16.931641 67.62695 17.4523 14.429 56.122201 14.48467 77.658201 13.88867.10996-28.18972.10937-28.18945.10937-28.18945-12.828.327-39.76767 1.10095-49.38867-8.12305-7.483895-7.175-8.452108-24.06292-8.570308-34.04492-.1457-12.296-.02854-24.60434-.02734-36.90234.002-20.394 1.820653-49.88292-13.935547-65.29492-6.4202-6.281-16.817125-11.27311-25.703125-12.91211 6.7104-1.002 15.383275-4.76866 20.859375-8.59766 19.4343-13.591 18.786103-41.9997 18.783203-63.0957l-.0059-26.69922c-.0105-54.754 2.575054-58.582091 58.001962-58.650391 0 0-.0564-.16498-.0409-27.794926-.16133-.410858-10.09894-.229438-13.71094-.210938z"/>
  <path fill="#CFB3FE" d="M255.25391 105c-7.12706.10858-14.14294 3.53455-19.125 9.76367-7.531 9.416-10.08725 20.60553-10.90625 32.39453-.53113 7.64556.37232 14.9161 1.09375 22.45313-.0262.22356-.0192.45468.0254.69336.0276.14752.043.17075.0703.3164.003.0313.005.0625.008.0937h.0117c3.38334 18.0248 6.09202 25.8092 9.09959 33.01954 4.13947 9.92822 5.3966 13.34048 9.92187 24.26953 1.84201 4.449 3.32002 10.99234 4.66602 15.77734-.801-1.281-1.41658-2.58967-2.14258-3.88867-5.163-9.242-9.90434-18.33386-13.65234-28.25586-5.31763-14.08144-16.16406-30.57422-16.16406-30.57422l-.17969-.30664c-1.435-2.398-3.411-4.87491-5.125-7.12891-10.154-13.35-23.02083-25.70178-39.67383-29.92578-2.69587-.68362-5.38572-1.01804-7.99805-1.00976-11.32009.0359-21.18929 6.50218-23.83398 18.83593-2.321 9.863 1.92817 21.54724 7.32617 29.74024 12.064 18.311 31.42213 30.82912 50.70313 40.45312 7.716 3.852 15.92479 6.64757 23.46679 10.85157 3.282 1.83 6.7971 3.42495 9.9961 5.37695-4.925-1.216-12.33247-3.06634-16.98047-4.90234-30.146-11.908-68.22855-24.67932-98.93555-7.94532-5.851 3.19-11.94786 10.49121-13.38086 17.28321-5.08279 31.017 36.56677 38.60438 59.25977 34.69335 15.50377-1.50812 30.34942-6.02527 44.74609-11.87109 10.29-4.541 20.35056-8.31734 31.10156-11.65234l.26758.0566-.15039.32226c-10.96444 5.94827-22.52543 11.40141-33.58591 16.39663-10.60942 5.11837-21.01086 12.24551-30.97863 17.68743-14.65559 11.27094-29.6075 25.28126-32.99414 44.30078-.823 4.626-.70971 6.65631.15429 11.19531 1.967 10.349 9.83727 17.04742 20.07227 18.60742 10.548 1.538 22.4407-3.76314 30.8457-9.86914 6.787-5.004 12.75499-10.87748 17.95899-17.52148.266-.341.093-.17864.45703-.43164-.0489-.0172-.0983-.0345-.14844-.0527l18.95899-30.51367c.039.0328.0778.0653.11718.0977 2.298-4.896 4.49852-9.83541 6.60352-14.81641 1.649-3.984 3.30931-9.13825 5.44531-12.78125 2.884-4.92 5.43949-10.15078 8.27149-15.05078-.719 3.139-1.81092 6.20319-2.71289 9.24219-1.28103 4.311-2.48152 8.23375-4.10352 12.34375-1.77577 4.49961-8.25257 18.55422-8.89844 22.87304l-.0293.0293-8.39843 32.61524c-.002-.00026-.006.00026-.008 0 .00002.009-.00003.0183 0 .0273.0101 4.02445-.61786 7.96176-.72461 11.92773-.454 16.851 4.05998 40.11969 21.08398 47.80469 5.493 2.476 11.747 2.65781 17.375.50781 20.61-8.008 24.12417-37.99578 21.70117-57.05078-.384-3.021-.64309-7.82976-1.74609-10.63476-.0113.006-.0219.0118-.0332.0176l-13.74414-61.02344s13.68657 37.74759 23.60743 55.08789c1.57682 2.75607 4.37724 6.07593 5.64648 7.67187 9.766 12.283 20.32259 22.53421 35.43359 27.78321 17.848 6.199 35.21658-2.59335 36.01758-22.40235.225-6.066-2.81197-14.95348-5.79297-20.27148-9.339-16.655-25.47793-29.1455-41.83593-38.4375-3.34769-1.91558-6.66918-3.92278-10.31055-5.23441-.004-.001-.009-.003-.0137-.004l-38.66016-14.87305 38.62305 9.53516v.0234c5.027 1.372 9.78336 3.05991 14.94336 4.37891 19.776 4.904 38.04604 7.36342 57.74804.98242 27.318-8.847 31.7868-38.78943 4.5918-51.27344-8.52637-3.91425-18.28041-5.56771-28.35937-5.66406-16.79828-.16058-34.49836 4.00727-48.91211 9.25977v.004l-43.57422 12.13672-.01-.0176 43.60938-17.69532c.00021.0114-.00022.0218 0 .0332 2.035-.218 8.03334-3.83897 10.15234-5.04297 15.905-9.034 30.51799-20.1255 40.45899-35.8125 8.703-13.732 11.87042-33.77739-4.01758-43.77539-4.25975-2.5445-8.79123-3.62558-13.38281-3.625-26.63264.79164-43.577 24.71296-45.1836 27.77929-12.38735 23.64225-14.20229 26.66202-33.00974 73.13106 6.30357-24.55279 14.37063-46.18458 17.28323-74.31054 1.48809-14.36993 1.09937-12.72659 1.17187-14.60157.08-2.482.0156-4.9664-.1914-7.4414-1.011-13.194-4.21555-27.13878-14.56055-36.17578-4.77444-4.1706-10.38447-6.09422-15.92773-6.00977z"/>
  <path d="M255.24999973 105.00585731c-.84532.0129-1.68642.0802-2.52539.18555.83815-.10517 1.68087-.17268 2.52539-.18555m2.24805.084c.22688.0189.45305.0563.67968.082-.22681-.0258-.45262-.0631-.67968-.082m-5.61328.24414c-.55248.0899-1.10396.18495-1.65039.31445.54628-.12943 1.09805-.22458 1.65039-.31445m7.85742.0605c.27112.0501.54038.11568.81054.17579-.27033-.0601-.53925-.1257-.81054-.17579m-10.49414.52539c-.49155.13901-.98066.28415-1.46485.45508.48404-.17087.97346-.31611 1.46485-.45508m12.70312.002c.29269.0848.58417.18037.875.27734-.2913-.0972-.58183-.1924-.875-.27734m2.22461.77539c.27724.11198.55328.22612.82813.34961-.27487-.12354-.55087-.23759-.82813-.34961m-17.4082.0723c-.46341.18726-.92266.38491-1.37695.60157.45414-.21663.9137-.41433 1.37695-.60157m19.58984.94532c.25989.13721.52029.26995.77735.41797-.25726-.14816-.51726-.28063-.77735-.41797m-21.94531.14843c-.45721.24319-.90617.504-1.35156.77735.44499-.27315.89477-.5343 1.35156-.77735m24.14648 1.16797c.21308.14286.43004.27308.64063.42383-.21077-.1509-.42737-.28083-.64063-.42383m-26.41601.19141c-.44814.30189-.88315.6279-1.31641.96094.4328-.33273.86875-.6593 1.31641-.96094m-2.14258 1.60351c-.47454.3957-.93014.82375-1.38281 1.25782.45233-.43375.90866-.86238 1.38281-1.25782m-2.00781 1.84571c-.64724.66103-1.27235 1.35636-1.86524 2.09765.59295-.74137 1.21796-1.43656 1.86524-2.09765m107.67773 29.96289c2.29581-.00029 4.57713.26965 6.81641.85742-2.23934-.58815-4.5206-.85771-6.81641-.85742m-180.49023.0625c1.16791-.004 2.35437.0868 3.54687.2207-1.19218-.13377-2.37923-.2244-3.54687-.2207m0 0c-1.27342.004-2.51761.11721-3.7461.2832 1.22754-.16572 2.4737-.27917 3.7461-.2832m177.37109.11523c-.31205.0318-.62345.0764-.93555.11719.31189-.0408.62371-.0854.93555-.11719m-172.98437.21094c1.19865.16667 2.40383.3774 3.61132.68359-1.20822-.30638-2.41201-.51695-3.61132-.68359m-8.84571.0547c-1.18195.19134-2.3376.45281-3.45898.79492 1.12126-.34198 2.27716-.60366 3.45898-.79492m179.18555.13281c-1.53208.27825-3.06212.61971-4.58008 1.08789 1.5174-.46799 3.04857-.80968 4.58008-1.08789m-4.58008 1.08789c-1.38802.42811-2.75152.9747-4.11523 1.53906 1.36228-.56359 2.7287-1.11143 4.11523-1.53906m-179.71875.14063c-.1134.0435-.23118.0779-.34375.12304.11249-.0451.23043-.0795.34375-.12304m-2.4082 1.07226c-.16428.085-.32041.18265-.48242.27149.16181-.0887.31834-.18658.48242-.27149m-1.91992 1.125c-.22.14259-.43357.29312-.64844.44336.21472-.1501.4286-.30089.64844-.44336m-1.84375 1.33985c-.20579.16563-.41125.33058-.61133.5039.19998-.1732.40565-.33838.61133-.5039m175.97851.62109c-2.93555 1.62268-5.68387 3.51565-8.3125 5.49219 2.62442-1.97228 5.38246-3.87267 8.3125-5.49219m-177.79101 1.01172c-.14288.14396-.29238.27934-.43164.42773.13926-.14838.28876-.28377.43164-.42773m-1.91211 2.17773c-.0771.10161-.14509.21313-.22071.31641.0756-.10323.14361-.21485.22071-.31641m-1.29688 1.92383c-.13742.22616-.26382.46235-.39453.69531.13058-.2327.25726-.4694.39453-.69531m170.83594 1.81055c-2.45367 1.9598-4.78738 3.96657-6.79883 5.97851 2.00707-2.00756 4.35128-4.02265 6.79883-5.97851m-171.98633.34179c-.11903.25182-.2361.50482-.34765.76368.11151-.25875.22866-.51196.34765-.76368m-.98047 2.4043c-.0874.24954-.18098.49268-.26172.74805.0807-.25535.17434-.49853.26172-.74805m157.06836 12.4375c-4.385.051-8.77025.051-13.15625.002-4.79822.33892-14.0794.0117-19.32812.0117l-40.45117.002-7.79297.0215-.0937 10.29297c.238 6.724.10748 15.18419.0215 21.99219l12.11133-.004 4.57227.01 19.22656.0117.002 68.2793.008 19.75195c.007 6.01.93233 17.29086-3.51367 21.88086-3.654 3.772-11.81828 3.74186-16.73828 2.75586-1.78098-.42799-3.04972-.90796-4.5957-1.87695-.372-.306-.7265-.63156-1.0625-.97656-6.165-6.235-4.30222-23.36519-4.32422-32.11719l-51.26758-.004.25391 4.9668c.113 3.837.50773 7.66236 1.17773 11.44336 2.845 16.228 9.89852 30.43144 23.60352 40.27344 2.922 2.098 9.34236 5.70286 12.69336 6.88086 5.628 1.895 9.21565 2.88728 15.09765 3.98828 19.676 2.245 39.61546 1.74503 57.68946-7.41797 4.17138-2.1097 6.3371-3.27665 10.13281-6.02344 2.359-2.04 4.42257-3.99582 6.22851-5.90234 2.70896-2.85974 4.83608-5.60785 6.50782-8.36524.00046-.00077.001-.001.002-.002 1.67131-2.75691 2.88665-5.5219 3.76953-8.41406.00018-.0006-.00018-.001 0-.002.58843-1.92794 1.02929-3.9123 1.35938-5.98829.00009-.00061-.0001-.001 0-.002.99037-6.23007.98315-13.28436.97265-22.11523l-.0371-5.3125.0137-42.31641.0254-5.53906c-.20799-8.94997-.0211-18.85828.006-27.86524l30.20508-.004c-.224-10.45-.0275-21.77607-.0195-32.28907zm-140.3789 33.25977c3.81295 3.89932 7.96637 7.48198 12.3457 10.79297-4.37907-3.31071-8.53293-6.89404-12.3457-10.79297m181.43359 10.00976c-5.6366 4.3289-11.55693 8.32793-17.79492 11.8711 6.2384-3.5434 12.158-7.54158 17.79492-11.8711m-183.45898 13.3086c-9.25049-.6006-18.41457.0573-27.19141 2.57617 8.7762-2.51846 17.94164-3.17652 27.19141-2.57617m-42.22071 9.20312c-1.45889 1.03639-2.89433 2.29333-4.23047 3.69922 1.33602-1.40569 2.77164-2.66292 4.23047-3.69922m108.11719 6.0918c3.28047 1.82914 6.79243 3.42619 9.99023 5.37695.00053.00013.001-.00013.002 0-3.19822-1.95119-6.71118-3.54751-9.99219-5.37695zm-115.98047 2.19922c-.89772 1.38129-1.63238 2.82044-2.23047 4.26757.59811-1.44749 1.33258-2.88602 2.23047-4.26757m3.59961 30.18945c2.21392 2.1928 4.83744 4.07747 7.74219 5.67773-2.90422-1.60009-5.52854-3.4853-7.74219-5.67773m99.77734 69.76953c-2.602 3.322-5.39584 6.45063-8.38671 9.375 2.99127-2.92455 5.78441-6.05261 8.38671-9.375m-68.87695 8.7832c.36881 1.94044.94453 3.7518 1.70508 5.42579-.76045-1.67395-1.33627-3.48535-1.70508-5.42579m1.70508 5.42579c.50703 1.11598 1.09591 2.17181 1.75977 3.1621-.66377-.99026-1.2528-2.04614-1.75977-3.1621m3.96875 5.93554c.40374.42978.82476.84253 1.26172 1.23828-.43654-.3954-.85834-.80891-1.26172-1.23828m26.57617 6.41016c-2.71947.68569-5.46765 1.08414-8.16992 1.10351 2.70224-.0194 5.45053-.41771 8.16992-1.10351m66.72852 33.18945c1.75179 1.4046 3.6845 2.60774 5.8125 3.56836-2.128-.96062-4.06071-2.16377-5.8125-3.56836m5.8125 3.56836c2.05987.9285 4.22697 1.53492 6.42773 1.81641-2.20076-.28162-4.36786-.88791-6.42773-1.81641m13.05859 1.68555c-1.46358.24643-2.94506.34803-4.42187.30469 1.47681.0433 2.95829-.0582 4.42187-.30469"/>
</svg>
