<svg xmlns="http://www.w3.org/2000/svg" fill-rule="evenodd" clip-rule="evenodd" image-rendering="optimizeQuality"
     shape-rendering="geometricPrecision" text-rendering="geometricPrecision" viewBox="0 0 512 512">
    <path fill="#6e6e6e" d="M62.5-.5h130c6.206 2.03536 11.373 5.70202 15.5 11 17.439 28.5426 34.105 57.5426 50 87 .937 4.903.27 9.57-2 14-5.619 6.407-11.119 12.907-16.5 19.5-9.619 3.05-13.785-.45-12.5-10.5 5.167-6.333 10.333-12.667 15.5-19a4519.11928 4519.11928 0 0 1-45.5-78c-2.429-4.7664-6.263-7.5998-11.5-8.5-38.667-.6667-77.333-.6667-116 0-2.3477.3459-4.1811 1.5125-5.5 3.5-.6667 131.333-.6667 262.667 0 394 1.3189 1.987 3.1523 3.154 5.5 3.5 97.333.667 194.667.667 292 0 2.348-.346 4.181-1.513 5.5-3.5.333-14 .667-28 1-42 3.013-5.035 7.18-6.202 12.5-3.5 1.201.903 2.035 2.069 2.5 3.5.667 15 .667 30 0 45-2.435 7.434-7.268 12.601-14.5 15.5-74.999.5-149.999.667-225 .5-.167 18.336 0 36.67.5 55 1.518 5.857 5.352 9.024 11.5 9.5 93.333.667 186.667.667 280 0 6.148-.476 9.982-3.643 11.5-9.5.667-127.333.667-254.667 0-382-1.518-5.857-5.352-9.0236-11.5-9.5-17.33-.4999-34.663-.6666-52-.5.495 84.749-.005 169.415-1.5 254-5.42 4.309-10.086 3.642-14-2-.333-109.333-.667-218.667-1-328-.833-.8333-1.667-1.6667-2.5-2.5-13.601-1.1405-27.268-1.6405-41-1.5-12.667.1667-25.333.3333-38 .5-.928.3879-1.595 1.0546-2 2 12.558 30.3408 24.725 60.8408 36.5 91.5 1.09 6.646-.743 12.313-5.5 17-21.115 14.954-41.781 30.454-62 46.5 7.568 14.97 14.735 30.136 21.5 45.5.667 4 .667 8 0 12-7.553 11.939-15.719 23.439-24.5 34.5-10.176 6.749-19.342 5.582-27.5-3.5-1.923-3.044-2.756-6.377-2.5-10 .645-8.075 2.311-15.909 5-23.5-10.167-15.5-20.333-31-30.5-46.5-4.667-7-4.667-14 0-21 5.484-7.482 11.651-14.315 18.5-20.5 8.167-1.167 11.667 2.333 10.5 10.5-5.5 6.833-11 13.667-16.5 20.5 11.206 16.243 22.04 32.743 32.5 49.5l1.5 7.5c-2.077 8.124-3.577 16.29-4.5 24.5.893 1.211 1.726 1.211 2.5 0 6.308-8.808 12.808-17.475 19.5-26 .667-1.333.667-2.667 0-4-6.86-14.248-13.527-28.582-20-43-2.469-8.261-.635-15.428 5.5-21.5 20.867-14.268 41.201-29.268 61-45-12.358-30.0698-24.524-60.2365-36.5-90.5-1.639-10.3945 2.194-17.72787 11.5-22h89c7.04 3.21249 11.874 8.54583 14.5 16 .5 21.3307.667 42.6641.5 64 20.003-.1666 40.003 0 60 .5 10.683 3.3507 17.183 10.5174 19.5 21.5.667 129.333.667 258.667 0 388-2.507 11-9.007 18.333-19.5 22h-296c-8.892-3.057-15.059-9.057-18.5-18-1.453-20.613-1.953-41.28-1.5-62-21.669.167-43.3359 0-65-.5-7.2316-2.899-12.0649-8.066-14.5-15.5-.6667-133.333-.6667-266.667 0-400 2.6264-7.45417 7.4597-12.78751 14.5-16Z"
          opacity=".95"/>
</svg>
